<svg width="1369" height="1841" viewBox="0 0 1369 1841" fill="none" xmlns="http://www.w3.org/2000/svg">
<path d="M336 385.5C363.338 385.5 385.5 363.338 385.5 336C385.5 308.662 363.338 286.5 336 286.5C308.662 286.5 286.5 308.662 286.5 336C286.5 363.338 308.662 385.5 336 385.5Z" stroke="#8DFD1B"/>
<path d="M336.5 415.5C380.683 415.5 416.5 379.683 416.5 335.5C416.5 291.317 380.683 255.5 336.5 255.5C292.317 255.5 256.5 291.317 256.5 335.5C256.5 379.683 292.317 415.5 336.5 415.5Z" stroke="#8DFD1B"/>
<path d="M335.605 464.71C406.908 464.71 464.71 406.908 464.71 335.605C464.71 264.302 406.908 206.5 335.605 206.5C264.302 206.5 206.5 264.302 206.5 335.605C206.5 406.908 264.302 464.71 335.605 464.71Z" stroke="#8DFD1B" stroke-opacity="0.75"/>
<path d="M335.664 543.828C450.63 543.828 543.828 450.63 543.828 335.664C543.828 220.698 450.63 127.5 335.664 127.5C220.698 127.5 127.5 220.698 127.5 335.664C127.5 450.63 220.698 543.828 335.664 543.828Z" stroke="#8DFD1B" stroke-opacity="0.5"/>
<path d="M335.951 671.402C521.215 671.402 671.402 521.215 671.402 335.951C671.402 150.687 521.215 0.5 335.951 0.5C150.687 0.5 0.5 150.687 0.5 335.951C0.5 521.215 150.687 671.402 335.951 671.402Z" stroke="#8DFD1B" stroke-opacity="0.25"/>
<path d="M1033 850.5C1060.34 850.5 1082.5 828.338 1082.5 801C1082.5 773.662 1060.34 751.5 1033 751.5C1005.66 751.5 983.5 773.662 983.5 801C983.5 828.338 1005.66 850.5 1033 850.5Z" stroke="#8DFD1B"/>
<path d="M1033.5 880.5C1077.68 880.5 1113.5 844.683 1113.5 800.5C1113.5 756.317 1077.68 720.5 1033.5 720.5C989.317 720.5 953.5 756.317 953.5 800.5C953.5 844.683 989.317 880.5 1033.5 880.5Z" stroke="#8DFD1B"/>
<path d="M1032.61 929.71C1103.91 929.71 1161.71 871.908 1161.71 800.605C1161.71 729.302 1103.91 671.5 1032.61 671.5C961.302 671.5 903.5 729.302 903.5 800.605C903.5 871.908 961.302 929.71 1032.61 929.71Z" stroke="#8DFD1B" stroke-opacity="0.75"/>
<path d="M1032.66 1008.83C1147.63 1008.83 1240.83 915.63 1240.83 800.664C1240.83 685.698 1147.63 592.5 1032.66 592.5C917.698 592.5 824.5 685.698 824.5 800.664C824.5 915.63 917.698 1008.83 1032.66 1008.83Z" stroke="#8DFD1B" stroke-opacity="0.5"/>
<path d="M1032.95 1136.4C1218.22 1136.4 1368.4 986.215 1368.4 800.951C1368.4 615.687 1218.22 465.5 1032.95 465.5C847.687 465.5 697.5 615.687 697.5 800.951C697.5 986.215 847.687 1136.4 1032.95 1136.4Z" stroke="#8DFD1B" stroke-opacity="0.25"/>
<path d="M336 1554.5C363.338 1554.5 385.5 1532.34 385.5 1505C385.5 1477.66 363.338 1455.5 336 1455.5C308.662 1455.5 286.5 1477.66 286.5 1505C286.5 1532.34 308.662 1554.5 336 1554.5Z" stroke="#8DFD1B"/>
<path d="M336.5 1584.5C380.683 1584.5 416.5 1548.68 416.5 1504.5C416.5 1460.32 380.683 1424.5 336.5 1424.5C292.317 1424.5 256.5 1460.32 256.5 1504.5C256.5 1548.68 292.317 1584.5 336.5 1584.5Z" stroke="#8DFD1B"/>
<path d="M335.605 1633.71C406.908 1633.71 464.71 1575.91 464.71 1504.61C464.71 1433.3 406.908 1375.5 335.605 1375.5C264.302 1375.5 206.5 1433.3 206.5 1504.61C206.5 1575.91 264.302 1633.71 335.605 1633.71Z" stroke="#8DFD1B" stroke-opacity="0.75"/>
<path d="M335.664 1712.83C450.63 1712.83 543.828 1619.63 543.828 1504.66C543.828 1389.7 450.63 1296.5 335.664 1296.5C220.698 1296.5 127.5 1389.7 127.5 1504.66C127.5 1619.63 220.698 1712.83 335.664 1712.83Z" stroke="#8DFD1B" stroke-opacity="0.5"/>
<path d="M335.951 1840.4C521.215 1840.4 671.402 1690.22 671.402 1504.95C671.402 1319.69 521.215 1169.5 335.951 1169.5C150.687 1169.5 0.5 1319.69 0.5 1504.95C0.5 1690.22 150.687 1840.4 335.951 1840.4Z" stroke="#8DFD1B" stroke-opacity="0.25"/>
</svg>
