<svg width="1136" height="120" viewBox="0 0 1136 120" fill="none" xmlns="http://www.w3.org/2000/svg">
<path d="M26.6719 29H3.50781C3.14323 29 2.80469 28.9349 2.49219 28.8047C2.17969 28.6745 1.90625 28.4987 1.67188 28.2773C1.45052 28.043 1.27474 27.7695 1.14453 27.457C1.01432 27.1445 0.949219 26.806 0.949219 26.4414V0.992188H6.02734V23.9219H26.6719V29Z" fill="white"/>
<path d="M59.3672 17.6719C59.3672 19.3776 59.0742 20.9466 58.4883 22.3789C57.9023 23.8112 57.0885 25.0482 56.0469 26.0898C55.0052 27.1315 53.7682 27.9453 52.3359 28.5312C50.9167 29.1042 49.3672 29.3906 47.6875 29.3906H40.8125C39.1328 29.3906 37.5768 29.1042 36.1445 28.5312C34.7122 27.9453 33.4753 27.1315 32.4336 26.0898C31.3919 25.0482 30.5716 23.8112 29.9727 22.3789C29.3867 20.9466 29.0938 19.3776 29.0938 17.6719V12.3203C29.0938 10.6276 29.3867 9.0651 29.9727 7.63281C30.5716 6.1875 31.3919 4.95052 32.4336 3.92188C33.4753 2.88021 34.7122 2.06641 36.1445 1.48047C37.5768 0.894531 39.1328 0.601562 40.8125 0.601562H47.6875C49.3672 0.601562 50.9167 0.894531 52.3359 1.48047C53.7682 2.06641 55.0052 2.88021 56.0469 3.92188C57.0885 4.95052 57.9023 6.1875 58.4883 7.63281C59.0742 9.0651 59.3672 10.6276 59.3672 12.3203V17.6719ZM54.2891 12.3203C54.2891 11.3177 54.1263 10.4128 53.8008 9.60547C53.4883 8.78516 53.0391 8.08854 52.4531 7.51562C51.8802 6.92969 51.1836 6.48047 50.3633 6.16797C49.556 5.84245 48.6641 5.67969 47.6875 5.67969H40.8125C39.8229 5.67969 38.918 5.84245 38.0977 6.16797C37.2904 6.48047 36.5938 6.92969 36.0078 7.51562C35.4219 8.08854 34.9661 8.78516 34.6406 9.60547C34.3281 10.4128 34.1719 11.3177 34.1719 12.3203V17.6719C34.1719 18.6745 34.3281 19.5859 34.6406 20.4062C34.9661 21.2135 35.4219 21.9102 36.0078 22.4961C36.5938 23.069 37.2904 23.5182 38.0977 23.8438C38.918 24.1562 39.8229 24.3125 40.8125 24.3125H47.6484C48.638 24.3125 49.5365 24.1562 50.3438 23.8438C51.1641 23.5182 51.8672 23.069 52.4531 22.4961C53.0391 21.9102 53.4883 21.2135 53.8008 20.4062C54.1263 19.5859 54.2891 18.6745 54.2891 17.6719V12.3203Z" fill="white"/>
<path d="M92.0234 26.4414C92.0234 26.806 91.9583 27.1445 91.8281 27.457C91.6979 27.7695 91.5156 28.043 91.2812 28.2773C91.0599 28.4987 90.793 28.6745 90.4805 28.8047C90.168 28.9349 89.8294 29 89.4648 29H71.1445C70.6758 29 70.168 28.9479 69.6211 28.8438C69.0872 28.7266 68.5534 28.5508 68.0195 28.3164C67.4987 28.082 66.9974 27.7826 66.5156 27.418C66.0339 27.0404 65.6042 26.5911 65.2266 26.0703C64.862 25.5365 64.569 24.9245 64.3477 24.2344C64.1263 23.5312 64.0156 22.7435 64.0156 21.8711V8.12109C64.0156 7.65234 64.0677 7.15104 64.1719 6.61719C64.2891 6.07031 64.4648 5.53646 64.6992 5.01562C64.9336 4.48177 65.2396 3.97396 65.6172 3.49219C65.9948 3.01042 66.444 2.58724 66.9648 2.22266C67.4987 1.84505 68.1107 1.54557 68.8008 1.32422C69.4909 1.10286 70.2721 0.992188 71.1445 0.992188H91.7891V6.07031H71.1445C70.4805 6.07031 69.9727 6.24609 69.6211 6.59766C69.2695 6.94922 69.0938 7.47005 69.0938 8.16016V21.8711C69.0938 22.5221 69.2695 23.0299 69.6211 23.3945C69.9857 23.7461 70.4935 23.9219 71.1445 23.9219H86.9453V17.5547H73.4297V12.4375H89.4648C89.8294 12.4375 90.168 12.5091 90.4805 12.6523C90.793 12.7826 91.0599 12.9648 91.2812 13.1992C91.5156 13.4336 91.6979 13.707 91.8281 14.0195C91.9583 14.319 92.0234 14.6445 92.0234 14.9961V26.4414Z" fill="white"/>
<path d="M126.711 17.6719C126.711 19.3776 126.418 20.9466 125.832 22.3789C125.246 23.8112 124.432 25.0482 123.391 26.0898C122.349 27.1315 121.112 27.9453 119.68 28.5312C118.26 29.1042 116.711 29.3906 115.031 29.3906H108.156C106.477 29.3906 104.921 29.1042 103.488 28.5312C102.056 27.9453 100.819 27.1315 99.7773 26.0898C98.7357 25.0482 97.9154 23.8112 97.3164 22.3789C96.7305 20.9466 96.4375 19.3776 96.4375 17.6719V12.3203C96.4375 10.6276 96.7305 9.0651 97.3164 7.63281C97.9154 6.1875 98.7357 4.95052 99.7773 3.92188C100.819 2.88021 102.056 2.06641 103.488 1.48047C104.921 0.894531 106.477 0.601562 108.156 0.601562H115.031C116.711 0.601562 118.26 0.894531 119.68 1.48047C121.112 2.06641 122.349 2.88021 123.391 3.92188C124.432 4.95052 125.246 6.1875 125.832 7.63281C126.418 9.0651 126.711 10.6276 126.711 12.3203V17.6719ZM121.633 12.3203C121.633 11.3177 121.47 10.4128 121.145 9.60547C120.832 8.78516 120.383 8.08854 119.797 7.51562C119.224 6.92969 118.527 6.48047 117.707 6.16797C116.9 5.84245 116.008 5.67969 115.031 5.67969H108.156C107.167 5.67969 106.262 5.84245 105.441 6.16797C104.634 6.48047 103.938 6.92969 103.352 7.51562C102.766 8.08854 102.31 8.78516 101.984 9.60547C101.672 10.4128 101.516 11.3177 101.516 12.3203V17.6719C101.516 18.6745 101.672 19.5859 101.984 20.4062C102.31 21.2135 102.766 21.9102 103.352 22.4961C103.938 23.069 104.634 23.5182 105.441 23.8438C106.262 24.1562 107.167 24.3125 108.156 24.3125H114.992C115.982 24.3125 116.88 24.1562 117.688 23.8438C118.508 23.5182 119.211 23.069 119.797 22.4961C120.383 21.9102 120.832 21.2135 121.145 20.4062C121.47 19.5859 121.633 18.6745 121.633 17.6719V12.3203Z" fill="white"/>
<path d="M136.848 12.4375H154.68V0.992188H159.758V29H154.68V17.5547H136.848V29H131.77V0.992188H136.848V12.4375Z" fill="white"/>
<path d="M195.109 17.6719C195.109 19.3776 194.816 20.9466 194.23 22.3789C193.645 23.8112 192.831 25.0482 191.789 26.0898C190.747 27.1315 189.51 27.9453 188.078 28.5312C186.659 29.1042 185.109 29.3906 183.43 29.3906H176.555C174.875 29.3906 173.319 29.1042 171.887 28.5312C170.454 27.9453 169.217 27.1315 168.176 26.0898C167.134 25.0482 166.314 23.8112 165.715 22.3789C165.129 20.9466 164.836 19.3776 164.836 17.6719V12.3203C164.836 10.6276 165.129 9.0651 165.715 7.63281C166.314 6.1875 167.134 4.95052 168.176 3.92188C169.217 2.88021 170.454 2.06641 171.887 1.48047C173.319 0.894531 174.875 0.601562 176.555 0.601562H183.43C185.109 0.601562 186.659 0.894531 188.078 1.48047C189.51 2.06641 190.747 2.88021 191.789 3.92188C192.831 4.95052 193.645 6.1875 194.23 7.63281C194.816 9.0651 195.109 10.6276 195.109 12.3203V17.6719ZM190.031 12.3203C190.031 11.3177 189.868 10.4128 189.543 9.60547C189.23 8.78516 188.781 8.08854 188.195 7.51562C187.622 6.92969 186.926 6.48047 186.105 6.16797C185.298 5.84245 184.406 5.67969 183.43 5.67969H176.555C175.565 5.67969 174.66 5.84245 173.84 6.16797C173.033 6.48047 172.336 6.92969 171.75 7.51562C171.164 8.08854 170.708 8.78516 170.383 9.60547C170.07 10.4128 169.914 11.3177 169.914 12.3203V17.6719C169.914 18.6745 170.07 19.5859 170.383 20.4062C170.708 21.2135 171.164 21.9102 171.75 22.4961C172.336 23.069 173.033 23.5182 173.84 23.8438C174.66 24.1562 175.565 24.3125 176.555 24.3125H183.391C184.38 24.3125 185.279 24.1562 186.086 23.8438C186.906 23.5182 187.609 23.069 188.195 22.4961C188.781 21.9102 189.23 21.2135 189.543 20.4062C189.868 19.5859 190.031 18.6745 190.031 17.6719V12.3203Z" fill="white"/>
<path d="M225.852 29H202.688C202.323 29 201.984 28.9349 201.672 28.8047C201.359 28.6745 201.086 28.4987 200.852 28.2773C200.63 28.043 200.454 27.7695 200.324 27.457C200.194 27.1445 200.129 26.806 200.129 26.4414V0.992188H205.207V23.9219H225.852V29Z" fill="white"/>
<path d="M257.531 17.2812C257.531 18.987 257.232 20.556 256.633 21.9883C256.047 23.4206 255.233 24.6576 254.191 25.6992C253.15 26.7279 251.913 27.5352 250.48 28.1211C249.048 28.707 247.492 29 245.812 29H232.102C231.737 29 231.398 28.9349 231.086 28.8047C230.773 28.6745 230.5 28.4987 230.266 28.2773C230.044 28.043 229.868 27.7695 229.738 27.457C229.608 27.1445 229.543 26.806 229.543 26.4414V3.55078C229.543 3.19922 229.608 2.86719 229.738 2.55469C229.868 2.24219 230.044 1.96875 230.266 1.73438C230.5 1.5 230.773 1.31771 231.086 1.1875C231.398 1.05729 231.737 0.992188 232.102 0.992188H245.812C247.492 0.992188 249.048 1.28516 250.48 1.87109C251.913 2.45703 253.15 3.27083 254.191 4.3125C255.233 5.34115 256.047 6.57812 256.633 8.02344C257.232 9.45573 257.531 11.0182 257.531 12.7109V17.2812ZM252.453 12.7109C252.453 11.7214 252.29 10.8164 251.965 9.99609C251.652 9.17578 251.203 8.47917 250.617 7.90625C250.031 7.32031 249.328 6.87109 248.508 6.55859C247.701 6.23307 246.802 6.07031 245.812 6.07031H234.621V23.9219H245.812C246.802 23.9219 247.701 23.7656 248.508 23.4531C249.328 23.1276 250.031 22.6784 250.617 22.1055C251.203 21.5195 251.652 20.8229 251.965 20.0156C252.29 19.1953 252.453 18.2839 252.453 17.2812V12.7109Z" fill="white"/>
<path d="M285.539 17.5547H269.504V12.4375H285.539V17.5547ZM287.824 29H269.504C268.801 29 268.033 28.8763 267.199 28.6289C266.366 28.3815 265.591 27.9779 264.875 27.418C264.172 26.8451 263.579 26.1094 263.098 25.2109C262.629 24.2995 262.395 23.1862 262.395 21.8711V3.55078C262.395 3.19922 262.46 2.86719 262.59 2.55469C262.72 2.24219 262.896 1.96875 263.117 1.73438C263.352 1.5 263.625 1.31771 263.938 1.1875C264.25 1.05729 264.589 0.992188 264.953 0.992188H287.824V6.07031H267.473V21.8711C267.473 22.5352 267.648 23.043 268 23.3945C268.352 23.7461 268.866 23.9219 269.543 23.9219H287.824V29Z" fill="white"/>
<path d="M320.734 10.4062C320.734 11.5651 320.591 12.6003 320.305 13.5117C320.018 14.4232 319.628 15.2305 319.133 15.9336C318.651 16.6237 318.091 17.2161 317.453 17.7109C316.815 18.2057 316.145 18.6159 315.441 18.9414C314.751 19.2539 314.048 19.4818 313.332 19.625C312.629 19.7682 311.965 19.8398 311.34 19.8398L321.945 29H314.094L303.508 19.8398H299.855V14.7617H311.34C311.978 14.7096 312.557 14.5794 313.078 14.3711C313.612 14.1497 314.068 13.8568 314.445 13.4922C314.836 13.1276 315.135 12.6914 315.344 12.1836C315.552 11.6628 315.656 11.0703 315.656 10.4062V7.20312C315.656 6.91667 315.617 6.70182 315.539 6.55859C315.474 6.40234 315.383 6.29167 315.266 6.22656C315.161 6.14844 315.044 6.10286 314.914 6.08984C314.797 6.07682 314.686 6.07031 314.582 6.07031H297.824V29H292.746V3.55078C292.746 3.19922 292.811 2.86719 292.941 2.55469C293.072 2.24219 293.247 1.96875 293.469 1.73438C293.703 1.5 293.977 1.31771 294.289 1.1875C294.602 1.05729 294.94 0.992188 295.305 0.992188H314.582C315.715 0.992188 316.672 1.20052 317.453 1.61719C318.234 2.02083 318.866 2.53516 319.348 3.16016C319.842 3.77214 320.194 4.4362 320.402 5.15234C320.624 5.86849 320.734 6.53906 320.734 7.16406V10.4062Z" fill="white"/>
<path d="M840.672 29H817.508C817.143 29 816.805 28.9349 816.492 28.8047C816.18 28.6745 815.906 28.4987 815.672 28.2773C815.451 28.043 815.275 27.7695 815.145 27.457C815.014 27.1445 814.949 26.806 814.949 26.4414V0.992188H820.027V23.9219H840.672V29Z" fill="white"/>
<path d="M873.367 17.6719C873.367 19.3776 873.074 20.9466 872.488 22.3789C871.902 23.8112 871.089 25.0482 870.047 26.0898C869.005 27.1315 867.768 27.9453 866.336 28.5312C864.917 29.1042 863.367 29.3906 861.688 29.3906H854.813C853.133 29.3906 851.577 29.1042 850.145 28.5312C848.712 27.9453 847.475 27.1315 846.434 26.0898C845.392 25.0482 844.572 23.8112 843.973 22.3789C843.387 20.9466 843.094 19.3776 843.094 17.6719V12.3203C843.094 10.6276 843.387 9.0651 843.973 7.63281C844.572 6.1875 845.392 4.95052 846.434 3.92188C847.475 2.88021 848.712 2.06641 850.145 1.48047C851.577 0.894531 853.133 0.601562 854.813 0.601562H861.688C863.367 0.601562 864.917 0.894531 866.336 1.48047C867.768 2.06641 869.005 2.88021 870.047 3.92188C871.089 4.95052 871.902 6.1875 872.488 7.63281C873.074 9.0651 873.367 10.6276 873.367 12.3203V17.6719ZM868.289 12.3203C868.289 11.3177 868.126 10.4128 867.801 9.60547C867.488 8.78516 867.039 8.08854 866.453 7.51562C865.88 6.92969 865.184 6.48047 864.363 6.16797C863.556 5.84245 862.664 5.67969 861.688 5.67969H854.813C853.823 5.67969 852.918 5.84245 852.098 6.16797C851.29 6.48047 850.594 6.92969 850.008 7.51562C849.422 8.08854 848.966 8.78516 848.641 9.60547C848.328 10.4128 848.172 11.3177 848.172 12.3203V17.6719C848.172 18.6745 848.328 19.5859 848.641 20.4062C848.966 21.2135 849.422 21.9102 850.008 22.4961C850.594 23.069 851.29 23.5182 852.098 23.8438C852.918 24.1562 853.823 24.3125 854.813 24.3125H861.648C862.638 24.3125 863.537 24.1562 864.344 23.8438C865.164 23.5182 865.867 23.069 866.453 22.4961C867.039 21.9102 867.488 21.2135 867.801 20.4062C868.126 19.5859 868.289 18.6745 868.289 17.6719V12.3203Z" fill="white"/>
<path d="M906.023 26.4414C906.023 26.806 905.958 27.1445 905.828 27.457C905.698 27.7695 905.516 28.043 905.281 28.2773C905.06 28.4987 904.793 28.6745 904.481 28.8047C904.168 28.9349 903.829 29 903.465 29H885.145C884.676 29 884.168 28.9479 883.621 28.8438C883.087 28.7266 882.553 28.5508 882.02 28.3164C881.499 28.082 880.997 27.7826 880.516 27.418C880.034 27.0404 879.604 26.5911 879.227 26.0703C878.862 25.5365 878.569 24.9245 878.348 24.2344C878.126 23.5312 878.016 22.7435 878.016 21.8711V8.12109C878.016 7.65234 878.068 7.15104 878.172 6.61719C878.289 6.07031 878.465 5.53646 878.699 5.01562C878.934 4.48177 879.24 3.97396 879.617 3.49219C879.995 3.01042 880.444 2.58724 880.965 2.22266C881.499 1.84505 882.111 1.54557 882.801 1.32422C883.491 1.10286 884.272 0.992188 885.145 0.992188H905.789V6.07031H885.145C884.481 6.07031 883.973 6.24609 883.621 6.59766C883.27 6.94922 883.094 7.47005 883.094 8.16016V21.8711C883.094 22.5221 883.27 23.0299 883.621 23.3945C883.986 23.7461 884.494 23.9219 885.145 23.9219H900.945V17.5547H887.43V12.4375H903.465C903.829 12.4375 904.168 12.5091 904.481 12.6523C904.793 12.7826 905.06 12.9648 905.281 13.1992C905.516 13.4336 905.698 13.707 905.828 14.0195C905.958 14.319 906.023 14.6445 906.023 14.9961V26.4414Z" fill="white"/>
<path d="M940.711 17.6719C940.711 19.3776 940.418 20.9466 939.832 22.3789C939.246 23.8112 938.432 25.0482 937.391 26.0898C936.349 27.1315 935.112 27.9453 933.68 28.5312C932.26 29.1042 930.711 29.3906 929.031 29.3906H922.156C920.477 29.3906 918.921 29.1042 917.488 28.5312C916.056 27.9453 914.819 27.1315 913.777 26.0898C912.736 25.0482 911.915 23.8112 911.316 22.3789C910.73 20.9466 910.438 19.3776 910.438 17.6719V12.3203C910.438 10.6276 910.73 9.0651 911.316 7.63281C911.915 6.1875 912.736 4.95052 913.777 3.92188C914.819 2.88021 916.056 2.06641 917.488 1.48047C918.921 0.894531 920.477 0.601562 922.156 0.601562H929.031C930.711 0.601562 932.26 0.894531 933.68 1.48047C935.112 2.06641 936.349 2.88021 937.391 3.92188C938.432 4.95052 939.246 6.1875 939.832 7.63281C940.418 9.0651 940.711 10.6276 940.711 12.3203V17.6719ZM935.633 12.3203C935.633 11.3177 935.47 10.4128 935.145 9.60547C934.832 8.78516 934.383 8.08854 933.797 7.51562C933.224 6.92969 932.527 6.48047 931.707 6.16797C930.9 5.84245 930.008 5.67969 929.031 5.67969H922.156C921.167 5.67969 920.262 5.84245 919.441 6.16797C918.634 6.48047 917.938 6.92969 917.352 7.51562C916.766 8.08854 916.31 8.78516 915.984 9.60547C915.672 10.4128 915.516 11.3177 915.516 12.3203V17.6719C915.516 18.6745 915.672 19.5859 915.984 20.4062C916.31 21.2135 916.766 21.9102 917.352 22.4961C917.938 23.069 918.634 23.5182 919.441 23.8438C920.262 24.1562 921.167 24.3125 922.156 24.3125H928.992C929.982 24.3125 930.88 24.1562 931.688 23.8438C932.508 23.5182 933.211 23.069 933.797 22.4961C934.383 21.9102 934.832 21.2135 935.145 20.4062C935.47 19.5859 935.633 18.6745 935.633 17.6719V12.3203Z" fill="white"/>
<path d="M950.848 12.4375H968.68V0.992188H973.758V29H968.68V17.5547H950.848V29H945.77V0.992188H950.848V12.4375Z" fill="white"/>
<path d="M1009.11 17.6719C1009.11 19.3776 1008.82 20.9466 1008.23 22.3789C1007.64 23.8112 1006.83 25.0482 1005.79 26.0898C1004.75 27.1315 1003.51 27.9453 1002.08 28.5312C1000.66 29.1042 999.109 29.3906 997.43 29.3906H990.555C988.875 29.3906 987.319 29.1042 985.887 28.5312C984.454 27.9453 983.217 27.1315 982.176 26.0898C981.134 25.0482 980.314 23.8112 979.715 22.3789C979.129 20.9466 978.836 19.3776 978.836 17.6719V12.3203C978.836 10.6276 979.129 9.0651 979.715 7.63281C980.314 6.1875 981.134 4.95052 982.176 3.92188C983.217 2.88021 984.454 2.06641 985.887 1.48047C987.319 0.894531 988.875 0.601562 990.555 0.601562H997.43C999.109 0.601562 1000.66 0.894531 1002.08 1.48047C1003.51 2.06641 1004.75 2.88021 1005.79 3.92188C1006.83 4.95052 1007.64 6.1875 1008.23 7.63281C1008.82 9.0651 1009.11 10.6276 1009.11 12.3203V17.6719ZM1004.03 12.3203C1004.03 11.3177 1003.87 10.4128 1003.54 9.60547C1003.23 8.78516 1002.78 8.08854 1002.19 7.51562C1001.62 6.92969 1000.93 6.48047 1000.1 6.16797C999.298 5.84245 998.406 5.67969 997.43 5.67969H990.555C989.565 5.67969 988.66 5.84245 987.84 6.16797C987.033 6.48047 986.336 6.92969 985.75 7.51562C985.164 8.08854 984.708 8.78516 984.383 9.60547C984.07 10.4128 983.914 11.3177 983.914 12.3203V17.6719C983.914 18.6745 984.07 19.5859 984.383 20.4062C984.708 21.2135 985.164 21.9102 985.75 22.4961C986.336 23.069 987.033 23.5182 987.84 23.8438C988.66 24.1562 989.565 24.3125 990.555 24.3125H997.391C998.38 24.3125 999.279 24.1562 1000.09 23.8438C1000.91 23.5182 1001.61 23.069 1002.19 22.4961C1002.78 21.9102 1003.23 21.2135 1003.54 20.4062C1003.87 19.5859 1004.03 18.6745 1004.03 17.6719V12.3203Z" fill="white"/>
<path d="M1039.85 29H1016.69C1016.32 29 1015.98 28.9349 1015.67 28.8047C1015.36 28.6745 1015.09 28.4987 1014.85 28.2773C1014.63 28.043 1014.45 27.7695 1014.32 27.457C1014.19 27.1445 1014.13 26.806 1014.13 26.4414V0.992188H1019.21V23.9219H1039.85V29Z" fill="white"/>
<path d="M1071.53 17.2812C1071.53 18.987 1071.23 20.556 1070.63 21.9883C1070.05 23.4206 1069.23 24.6576 1068.19 25.6992C1067.15 26.7279 1065.91 27.5352 1064.48 28.1211C1063.05 28.707 1061.49 29 1059.81 29H1046.1C1045.74 29 1045.4 28.9349 1045.09 28.8047C1044.77 28.6745 1044.5 28.4987 1044.27 28.2773C1044.04 28.043 1043.87 27.7695 1043.74 27.457C1043.61 27.1445 1043.54 26.806 1043.54 26.4414V3.55078C1043.54 3.19922 1043.61 2.86719 1043.74 2.55469C1043.87 2.24219 1044.04 1.96875 1044.27 1.73438C1044.5 1.5 1044.77 1.31771 1045.09 1.1875C1045.4 1.05729 1045.74 0.992188 1046.1 0.992188H1059.81C1061.49 0.992188 1063.05 1.28516 1064.48 1.87109C1065.91 2.45703 1067.15 3.27083 1068.19 4.3125C1069.23 5.34115 1070.05 6.57812 1070.63 8.02344C1071.23 9.45573 1071.53 11.0182 1071.53 12.7109V17.2812ZM1066.45 12.7109C1066.45 11.7214 1066.29 10.8164 1065.96 9.99609C1065.65 9.17578 1065.2 8.47917 1064.62 7.90625C1064.03 7.32031 1063.33 6.87109 1062.51 6.55859C1061.7 6.23307 1060.8 6.07031 1059.81 6.07031H1048.62V23.9219H1059.81C1060.8 23.9219 1061.7 23.7656 1062.51 23.4531C1063.33 23.1276 1064.03 22.6784 1064.62 22.1055C1065.2 21.5195 1065.65 20.8229 1065.96 20.0156C1066.29 19.1953 1066.45 18.2839 1066.45 17.2812V12.7109Z" fill="white"/>
<path d="M1099.54 17.5547H1083.5V12.4375H1099.54V17.5547ZM1101.82 29H1083.5C1082.8 29 1082.03 28.8763 1081.2 28.6289C1080.37 28.3815 1079.59 27.9779 1078.88 27.418C1078.17 26.8451 1077.58 26.1094 1077.1 25.2109C1076.63 24.2995 1076.4 23.1862 1076.4 21.8711V3.55078C1076.4 3.19922 1076.46 2.86719 1076.59 2.55469C1076.72 2.24219 1076.9 1.96875 1077.12 1.73438C1077.35 1.5 1077.63 1.31771 1077.94 1.1875C1078.25 1.05729 1078.59 0.992188 1078.95 0.992188H1101.82V6.07031H1081.47V21.8711C1081.47 22.5352 1081.65 23.043 1082 23.3945C1082.35 23.7461 1082.87 23.9219 1083.54 23.9219H1101.82V29Z" fill="white"/>
<path d="M1134.73 10.4062C1134.73 11.5651 1134.59 12.6003 1134.3 13.5117C1134.02 14.4232 1133.63 15.2305 1133.13 15.9336C1132.65 16.6237 1132.09 17.2161 1131.45 17.7109C1130.81 18.2057 1130.14 18.6159 1129.44 18.9414C1128.75 19.2539 1128.05 19.4818 1127.33 19.625C1126.63 19.7682 1125.96 19.8398 1125.34 19.8398L1135.94 29H1128.09L1117.51 19.8398H1113.85V14.7617H1125.34C1125.98 14.7096 1126.56 14.5794 1127.08 14.3711C1127.61 14.1497 1128.07 13.8568 1128.44 13.4922C1128.84 13.1276 1129.13 12.6914 1129.34 12.1836C1129.55 11.6628 1129.66 11.0703 1129.66 10.4062V7.20312C1129.66 6.91667 1129.62 6.70182 1129.54 6.55859C1129.47 6.40234 1129.38 6.29167 1129.27 6.22656C1129.16 6.14844 1129.04 6.10286 1128.91 6.08984C1128.8 6.07682 1128.69 6.07031 1128.58 6.07031H1111.82V29H1106.75V3.55078C1106.75 3.19922 1106.81 2.86719 1106.94 2.55469C1107.07 2.24219 1107.25 1.96875 1107.47 1.73438C1107.7 1.5 1107.98 1.31771 1108.29 1.1875C1108.6 1.05729 1108.94 0.992188 1109.3 0.992188H1128.58C1129.71 0.992188 1130.67 1.20052 1131.45 1.61719C1132.23 2.02083 1132.87 2.53516 1133.35 3.16016C1133.84 3.77214 1134.19 4.4362 1134.4 5.15234C1134.62 5.86849 1134.73 6.53906 1134.73 7.16406V10.4062Z" fill="white"/>
<path d="M433.672 119H410.508C410.143 119 409.805 118.935 409.492 118.805C409.18 118.675 408.906 118.499 408.672 118.277C408.451 118.043 408.275 117.77 408.145 117.457C408.014 117.145 407.949 116.806 407.949 116.441V90.9922H413.027V113.922H433.672V119Z" fill="white"/>
<path d="M466.367 107.672C466.367 109.378 466.074 110.947 465.488 112.379C464.902 113.811 464.089 115.048 463.047 116.09C462.005 117.132 460.768 117.945 459.336 118.531C457.917 119.104 456.367 119.391 454.688 119.391H447.813C446.133 119.391 444.577 119.104 443.145 118.531C441.712 117.945 440.475 117.132 439.434 116.09C438.392 115.048 437.572 113.811 436.973 112.379C436.387 110.947 436.094 109.378 436.094 107.672V102.32C436.094 100.628 436.387 99.0651 436.973 97.6328C437.572 96.1875 438.392 94.9505 439.434 93.9219C440.475 92.8802 441.712 92.0664 443.145 91.4805C444.577 90.8945 446.133 90.6016 447.813 90.6016H454.688C456.367 90.6016 457.917 90.8945 459.336 91.4805C460.768 92.0664 462.005 92.8802 463.047 93.9219C464.089 94.9505 464.902 96.1875 465.488 97.6328C466.074 99.0651 466.367 100.628 466.367 102.32V107.672ZM461.289 102.32C461.289 101.318 461.126 100.413 460.801 99.6055C460.488 98.7852 460.039 98.0885 459.453 97.5156C458.88 96.9297 458.184 96.4805 457.363 96.168C456.556 95.8425 455.664 95.6797 454.688 95.6797H447.813C446.823 95.6797 445.918 95.8425 445.098 96.168C444.29 96.4805 443.594 96.9297 443.008 97.5156C442.422 98.0885 441.966 98.7852 441.641 99.6055C441.328 100.413 441.172 101.318 441.172 102.32V107.672C441.172 108.674 441.328 109.586 441.641 110.406C441.966 111.214 442.422 111.91 443.008 112.496C443.594 113.069 444.29 113.518 445.098 113.844C445.918 114.156 446.823 114.312 447.813 114.312H454.648C455.638 114.312 456.537 114.156 457.344 113.844C458.164 113.518 458.867 113.069 459.453 112.496C460.039 111.91 460.488 111.214 460.801 110.406C461.126 109.586 461.289 108.674 461.289 107.672V102.32Z" fill="white"/>
<path d="M499.023 116.441C499.023 116.806 498.958 117.145 498.828 117.457C498.698 117.77 498.516 118.043 498.281 118.277C498.06 118.499 497.793 118.675 497.481 118.805C497.168 118.935 496.829 119 496.465 119H478.145C477.676 119 477.168 118.948 476.621 118.844C476.087 118.727 475.553 118.551 475.02 118.316C474.499 118.082 473.997 117.783 473.516 117.418C473.034 117.04 472.604 116.591 472.227 116.07C471.862 115.536 471.569 114.924 471.348 114.234C471.126 113.531 471.016 112.743 471.016 111.871V98.1211C471.016 97.6523 471.068 97.151 471.172 96.6172C471.289 96.0703 471.465 95.5365 471.699 95.0156C471.934 94.4818 472.24 93.974 472.617 93.4922C472.995 93.0104 473.444 92.5872 473.965 92.2227C474.499 91.845 475.111 91.5456 475.801 91.3242C476.491 91.1029 477.272 90.9922 478.145 90.9922H498.789V96.0703H478.145C477.481 96.0703 476.973 96.2461 476.621 96.5977C476.27 96.9492 476.094 97.47 476.094 98.1602V111.871C476.094 112.522 476.27 113.03 476.621 113.395C476.986 113.746 477.494 113.922 478.145 113.922H493.945V107.555H480.43V102.438H496.465C496.829 102.438 497.168 102.509 497.481 102.652C497.793 102.783 498.06 102.965 498.281 103.199C498.516 103.434 498.698 103.707 498.828 104.019C498.958 104.319 499.023 104.644 499.023 104.996V116.441Z" fill="white"/>
<path d="M533.711 107.672C533.711 109.378 533.418 110.947 532.832 112.379C532.246 113.811 531.432 115.048 530.391 116.09C529.349 117.132 528.112 117.945 526.68 118.531C525.26 119.104 523.711 119.391 522.031 119.391H515.156C513.477 119.391 511.921 119.104 510.488 118.531C509.056 117.945 507.819 117.132 506.777 116.09C505.736 115.048 504.915 113.811 504.316 112.379C503.73 110.947 503.438 109.378 503.438 107.672V102.32C503.438 100.628 503.73 99.0651 504.316 97.6328C504.915 96.1875 505.736 94.9505 506.777 93.9219C507.819 92.8802 509.056 92.0664 510.488 91.4805C511.921 90.8945 513.477 90.6016 515.156 90.6016H522.031C523.711 90.6016 525.26 90.8945 526.68 91.4805C528.112 92.0664 529.349 92.8802 530.391 93.9219C531.432 94.9505 532.246 96.1875 532.832 97.6328C533.418 99.0651 533.711 100.628 533.711 102.32V107.672ZM528.633 102.32C528.633 101.318 528.47 100.413 528.145 99.6055C527.832 98.7852 527.383 98.0885 526.797 97.5156C526.224 96.9297 525.527 96.4805 524.707 96.168C523.9 95.8425 523.008 95.6797 522.031 95.6797H515.156C514.167 95.6797 513.262 95.8425 512.441 96.168C511.634 96.4805 510.938 96.9297 510.352 97.5156C509.766 98.0885 509.31 98.7852 508.984 99.6055C508.672 100.413 508.516 101.318 508.516 102.32V107.672C508.516 108.674 508.672 109.586 508.984 110.406C509.31 111.214 509.766 111.91 510.352 112.496C510.938 113.069 511.634 113.518 512.441 113.844C513.262 114.156 514.167 114.312 515.156 114.312H521.992C522.982 114.312 523.88 114.156 524.688 113.844C525.508 113.518 526.211 113.069 526.797 112.496C527.383 111.91 527.832 111.214 528.145 110.406C528.47 109.586 528.633 108.674 528.633 107.672V102.32Z" fill="white"/>
<path d="M543.848 102.438H561.68V90.9922H566.758V119H561.68V107.555H543.848V119H538.77V90.9922H543.848V102.438Z" fill="white"/>
<path d="M602.109 107.672C602.109 109.378 601.816 110.947 601.23 112.379C600.645 113.811 599.831 115.048 598.789 116.09C597.747 117.132 596.51 117.945 595.078 118.531C593.659 119.104 592.109 119.391 590.43 119.391H583.555C581.875 119.391 580.319 119.104 578.887 118.531C577.454 117.945 576.217 117.132 575.176 116.09C574.134 115.048 573.314 113.811 572.715 112.379C572.129 110.947 571.836 109.378 571.836 107.672V102.32C571.836 100.628 572.129 99.0651 572.715 97.6328C573.314 96.1875 574.134 94.9505 575.176 93.9219C576.217 92.8802 577.454 92.0664 578.887 91.4805C580.319 90.8945 581.875 90.6016 583.555 90.6016H590.43C592.109 90.6016 593.659 90.8945 595.078 91.4805C596.51 92.0664 597.747 92.8802 598.789 93.9219C599.831 94.9505 600.645 96.1875 601.23 97.6328C601.816 99.0651 602.109 100.628 602.109 102.32V107.672ZM597.031 102.32C597.031 101.318 596.868 100.413 596.543 99.6055C596.23 98.7852 595.781 98.0885 595.195 97.5156C594.622 96.9297 593.926 96.4805 593.105 96.168C592.298 95.8425 591.406 95.6797 590.43 95.6797H583.555C582.565 95.6797 581.66 95.8425 580.84 96.168C580.033 96.4805 579.336 96.9297 578.75 97.5156C578.164 98.0885 577.708 98.7852 577.383 99.6055C577.07 100.413 576.914 101.318 576.914 102.32V107.672C576.914 108.674 577.07 109.586 577.383 110.406C577.708 111.214 578.164 111.91 578.75 112.496C579.336 113.069 580.033 113.518 580.84 113.844C581.66 114.156 582.565 114.312 583.555 114.312H590.391C591.38 114.312 592.279 114.156 593.086 113.844C593.906 113.518 594.609 113.069 595.195 112.496C595.781 111.91 596.23 111.214 596.543 110.406C596.868 109.586 597.031 108.674 597.031 107.672V102.32Z" fill="white"/>
<path d="M632.852 119H609.688C609.323 119 608.984 118.935 608.672 118.805C608.359 118.675 608.086 118.499 607.852 118.277C607.63 118.043 607.454 117.77 607.324 117.457C607.194 117.145 607.129 116.806 607.129 116.441V90.9922H612.207V113.922H632.852V119Z" fill="white"/>
<path d="M664.531 107.281C664.531 108.987 664.232 110.556 663.633 111.988C663.047 113.421 662.233 114.658 661.191 115.699C660.15 116.728 658.913 117.535 657.48 118.121C656.048 118.707 654.492 119 652.812 119H639.102C638.737 119 638.398 118.935 638.086 118.805C637.773 118.675 637.5 118.499 637.266 118.277C637.044 118.043 636.868 117.77 636.738 117.457C636.608 117.145 636.543 116.806 636.543 116.441V93.5508C636.543 93.1992 636.608 92.8672 636.738 92.5547C636.868 92.2422 637.044 91.9687 637.266 91.7344C637.5 91.5 637.773 91.3177 638.086 91.1875C638.398 91.0573 638.737 90.9922 639.102 90.9922H652.812C654.492 90.9922 656.048 91.2852 657.48 91.8711C658.913 92.457 660.15 93.2708 661.191 94.3125C662.233 95.3411 663.047 96.5781 663.633 98.0234C664.232 99.4557 664.531 101.018 664.531 102.711V107.281ZM659.453 102.711C659.453 101.721 659.29 100.816 658.965 99.9961C658.652 99.1758 658.203 98.4792 657.617 97.9062C657.031 97.3203 656.328 96.8711 655.508 96.5586C654.701 96.2331 653.802 96.0703 652.812 96.0703H641.621V113.922H652.812C653.802 113.922 654.701 113.766 655.508 113.453C656.328 113.128 657.031 112.678 657.617 112.105C658.203 111.519 658.652 110.823 658.965 110.016C659.29 109.195 659.453 108.284 659.453 107.281V102.711Z" fill="white"/>
<path d="M692.539 107.555H676.504V102.438H692.539V107.555ZM694.824 119H676.504C675.801 119 675.033 118.876 674.199 118.629C673.366 118.382 672.591 117.978 671.875 117.418C671.172 116.845 670.579 116.109 670.098 115.211C669.629 114.299 669.395 113.186 669.395 111.871V93.5508C669.395 93.1992 669.46 92.8672 669.59 92.5547C669.72 92.2422 669.896 91.9687 670.117 91.7344C670.352 91.5 670.625 91.3177 670.938 91.1875C671.25 91.0573 671.589 90.9922 671.953 90.9922H694.824V96.0703H674.473V111.871C674.473 112.535 674.648 113.043 675 113.395C675.352 113.746 675.866 113.922 676.543 113.922H694.824V119Z" fill="white"/>
<path d="M727.734 100.406C727.734 101.565 727.591 102.6 727.305 103.512C727.018 104.423 726.628 105.23 726.133 105.934C725.651 106.624 725.091 107.216 724.453 107.711C723.815 108.206 723.145 108.616 722.441 108.941C721.751 109.254 721.048 109.482 720.332 109.625C719.629 109.768 718.965 109.84 718.34 109.84L728.945 119H721.094L710.508 109.84H706.855V104.762H718.34C718.978 104.71 719.557 104.579 720.078 104.371C720.612 104.15 721.068 103.857 721.445 103.492C721.836 103.128 722.135 102.691 722.344 102.184C722.552 101.663 722.656 101.07 722.656 100.406V97.2031C722.656 96.9167 722.617 96.7018 722.539 96.5586C722.474 96.4023 722.383 96.2917 722.266 96.2266C722.161 96.1484 722.044 96.1029 721.914 96.0898C721.797 96.0768 721.686 96.0703 721.582 96.0703H704.824V119H699.746V93.5508C699.746 93.1992 699.811 92.8672 699.941 92.5547C700.072 92.2422 700.247 91.9687 700.469 91.7344C700.703 91.5 700.977 91.3177 701.289 91.1875C701.602 91.0573 701.94 90.9922 702.305 90.9922H721.582C722.715 90.9922 723.672 91.2005 724.453 91.6172C725.234 92.0208 725.866 92.5352 726.348 93.1602C726.842 93.7721 727.194 94.4362 727.402 95.1523C727.624 95.8685 727.734 96.5391 727.734 97.1641V100.406Z" fill="white"/>
<path d="M433.672 29H410.508C410.143 29 409.805 28.9349 409.492 28.8047C409.18 28.6745 408.906 28.4987 408.672 28.2773C408.451 28.043 408.275 27.7695 408.145 27.457C408.014 27.1445 407.949 26.806 407.949 26.4414V0.992188H413.027V23.9219H433.672V29Z" fill="white"/>
<path d="M466.367 17.6719C466.367 19.3776 466.074 20.9466 465.488 22.3789C464.902 23.8112 464.089 25.0482 463.047 26.0898C462.005 27.1315 460.768 27.9453 459.336 28.5312C457.917 29.1042 456.367 29.3906 454.688 29.3906H447.813C446.133 29.3906 444.577 29.1042 443.145 28.5312C441.712 27.9453 440.475 27.1315 439.434 26.0898C438.392 25.0482 437.572 23.8112 436.973 22.3789C436.387 20.9466 436.094 19.3776 436.094 17.6719V12.3203C436.094 10.6276 436.387 9.0651 436.973 7.63281C437.572 6.1875 438.392 4.95052 439.434 3.92188C440.475 2.88021 441.712 2.06641 443.145 1.48047C444.577 0.894531 446.133 0.601562 447.813 0.601562H454.688C456.367 0.601562 457.917 0.894531 459.336 1.48047C460.768 2.06641 462.005 2.88021 463.047 3.92188C464.089 4.95052 464.902 6.1875 465.488 7.63281C466.074 9.0651 466.367 10.6276 466.367 12.3203V17.6719ZM461.289 12.3203C461.289 11.3177 461.126 10.4128 460.801 9.60547C460.488 8.78516 460.039 8.08854 459.453 7.51562C458.88 6.92969 458.184 6.48047 457.363 6.16797C456.556 5.84245 455.664 5.67969 454.688 5.67969H447.813C446.823 5.67969 445.918 5.84245 445.098 6.16797C444.29 6.48047 443.594 6.92969 443.008 7.51562C442.422 8.08854 441.966 8.78516 441.641 9.60547C441.328 10.4128 441.172 11.3177 441.172 12.3203V17.6719C441.172 18.6745 441.328 19.5859 441.641 20.4062C441.966 21.2135 442.422 21.9102 443.008 22.4961C443.594 23.069 444.29 23.5182 445.098 23.8438C445.918 24.1562 446.823 24.3125 447.813 24.3125H454.648C455.638 24.3125 456.537 24.1562 457.344 23.8438C458.164 23.5182 458.867 23.069 459.453 22.4961C460.039 21.9102 460.488 21.2135 460.801 20.4062C461.126 19.5859 461.289 18.6745 461.289 17.6719V12.3203Z" fill="white"/>
<path d="M499.023 26.4414C499.023 26.806 498.958 27.1445 498.828 27.457C498.698 27.7695 498.516 28.043 498.281 28.2773C498.06 28.4987 497.793 28.6745 497.481 28.8047C497.168 28.9349 496.829 29 496.465 29H478.145C477.676 29 477.168 28.9479 476.621 28.8438C476.087 28.7266 475.553 28.5508 475.02 28.3164C474.499 28.082 473.997 27.7826 473.516 27.418C473.034 27.0404 472.604 26.5911 472.227 26.0703C471.862 25.5365 471.569 24.9245 471.348 24.2344C471.126 23.5312 471.016 22.7435 471.016 21.8711V8.12109C471.016 7.65234 471.068 7.15104 471.172 6.61719C471.289 6.07031 471.465 5.53646 471.699 5.01562C471.934 4.48177 472.24 3.97396 472.617 3.49219C472.995 3.01042 473.444 2.58724 473.965 2.22266C474.499 1.84505 475.111 1.54557 475.801 1.32422C476.491 1.10286 477.272 0.992188 478.145 0.992188H498.789V6.07031H478.145C477.481 6.07031 476.973 6.24609 476.621 6.59766C476.27 6.94922 476.094 7.47005 476.094 8.16016V21.8711C476.094 22.5221 476.27 23.0299 476.621 23.3945C476.986 23.7461 477.494 23.9219 478.145 23.9219H493.945V17.5547H480.43V12.4375H496.465C496.829 12.4375 497.168 12.5091 497.481 12.6523C497.793 12.7826 498.06 12.9648 498.281 13.1992C498.516 13.4336 498.698 13.707 498.828 14.0195C498.958 14.319 499.023 14.6445 499.023 14.9961V26.4414Z" fill="white"/>
<path d="M533.711 17.6719C533.711 19.3776 533.418 20.9466 532.832 22.3789C532.246 23.8112 531.432 25.0482 530.391 26.0898C529.349 27.1315 528.112 27.9453 526.68 28.5312C525.26 29.1042 523.711 29.3906 522.031 29.3906H515.156C513.477 29.3906 511.921 29.1042 510.488 28.5312C509.056 27.9453 507.819 27.1315 506.777 26.0898C505.736 25.0482 504.915 23.8112 504.316 22.3789C503.73 20.9466 503.438 19.3776 503.438 17.6719V12.3203C503.438 10.6276 503.73 9.0651 504.316 7.63281C504.915 6.1875 505.736 4.95052 506.777 3.92188C507.819 2.88021 509.056 2.06641 510.488 1.48047C511.921 0.894531 513.477 0.601562 515.156 0.601562H522.031C523.711 0.601562 525.26 0.894531 526.68 1.48047C528.112 2.06641 529.349 2.88021 530.391 3.92188C531.432 4.95052 532.246 6.1875 532.832 7.63281C533.418 9.0651 533.711 10.6276 533.711 12.3203V17.6719ZM528.633 12.3203C528.633 11.3177 528.47 10.4128 528.145 9.60547C527.832 8.78516 527.383 8.08854 526.797 7.51562C526.224 6.92969 525.527 6.48047 524.707 6.16797C523.9 5.84245 523.008 5.67969 522.031 5.67969H515.156C514.167 5.67969 513.262 5.84245 512.441 6.16797C511.634 6.48047 510.938 6.92969 510.352 7.51562C509.766 8.08854 509.31 8.78516 508.984 9.60547C508.672 10.4128 508.516 11.3177 508.516 12.3203V17.6719C508.516 18.6745 508.672 19.5859 508.984 20.4062C509.31 21.2135 509.766 21.9102 510.352 22.4961C510.938 23.069 511.634 23.5182 512.441 23.8438C513.262 24.1562 514.167 24.3125 515.156 24.3125H521.992C522.982 24.3125 523.88 24.1562 524.688 23.8438C525.508 23.5182 526.211 23.069 526.797 22.4961C527.383 21.9102 527.832 21.2135 528.145 20.4062C528.47 19.5859 528.633 18.6745 528.633 17.6719V12.3203Z" fill="white"/>
<path d="M543.848 12.4375H561.68V0.992188H566.758V29H561.68V17.5547H543.848V29H538.77V0.992188H543.848V12.4375Z" fill="white"/>
<path d="M602.109 17.6719C602.109 19.3776 601.816 20.9466 601.23 22.3789C600.645 23.8112 599.831 25.0482 598.789 26.0898C597.747 27.1315 596.51 27.9453 595.078 28.5312C593.659 29.1042 592.109 29.3906 590.43 29.3906H583.555C581.875 29.3906 580.319 29.1042 578.887 28.5312C577.454 27.9453 576.217 27.1315 575.176 26.0898C574.134 25.0482 573.314 23.8112 572.715 22.3789C572.129 20.9466 571.836 19.3776 571.836 17.6719V12.3203C571.836 10.6276 572.129 9.0651 572.715 7.63281C573.314 6.1875 574.134 4.95052 575.176 3.92188C576.217 2.88021 577.454 2.06641 578.887 1.48047C580.319 0.894531 581.875 0.601562 583.555 0.601562H590.43C592.109 0.601562 593.659 0.894531 595.078 1.48047C596.51 2.06641 597.747 2.88021 598.789 3.92188C599.831 4.95052 600.645 6.1875 601.23 7.63281C601.816 9.0651 602.109 10.6276 602.109 12.3203V17.6719ZM597.031 12.3203C597.031 11.3177 596.868 10.4128 596.543 9.60547C596.23 8.78516 595.781 8.08854 595.195 7.51562C594.622 6.92969 593.926 6.48047 593.105 6.16797C592.298 5.84245 591.406 5.67969 590.43 5.67969H583.555C582.565 5.67969 581.66 5.84245 580.84 6.16797C580.033 6.48047 579.336 6.92969 578.75 7.51562C578.164 8.08854 577.708 8.78516 577.383 9.60547C577.07 10.4128 576.914 11.3177 576.914 12.3203V17.6719C576.914 18.6745 577.07 19.5859 577.383 20.4062C577.708 21.2135 578.164 21.9102 578.75 22.4961C579.336 23.069 580.033 23.5182 580.84 23.8438C581.66 24.1562 582.565 24.3125 583.555 24.3125H590.391C591.38 24.3125 592.279 24.1562 593.086 23.8438C593.906 23.5182 594.609 23.069 595.195 22.4961C595.781 21.9102 596.23 21.2135 596.543 20.4062C596.868 19.5859 597.031 18.6745 597.031 17.6719V12.3203Z" fill="white"/>
<path d="M632.852 29H609.688C609.323 29 608.984 28.9349 608.672 28.8047C608.359 28.6745 608.086 28.4987 607.852 28.2773C607.63 28.043 607.454 27.7695 607.324 27.457C607.194 27.1445 607.129 26.806 607.129 26.4414V0.992188H612.207V23.9219H632.852V29Z" fill="white"/>
<path d="M664.531 17.2812C664.531 18.987 664.232 20.556 663.633 21.9883C663.047 23.4206 662.233 24.6576 661.191 25.6992C660.15 26.7279 658.913 27.5352 657.48 28.1211C656.048 28.707 654.492 29 652.812 29H639.102C638.737 29 638.398 28.9349 638.086 28.8047C637.773 28.6745 637.5 28.4987 637.266 28.2773C637.044 28.043 636.868 27.7695 636.738 27.457C636.608 27.1445 636.543 26.806 636.543 26.4414V3.55078C636.543 3.19922 636.608 2.86719 636.738 2.55469C636.868 2.24219 637.044 1.96875 637.266 1.73438C637.5 1.5 637.773 1.31771 638.086 1.1875C638.398 1.05729 638.737 0.992188 639.102 0.992188H652.812C654.492 0.992188 656.048 1.28516 657.48 1.87109C658.913 2.45703 660.15 3.27083 661.191 4.3125C662.233 5.34115 663.047 6.57812 663.633 8.02344C664.232 9.45573 664.531 11.0182 664.531 12.7109V17.2812ZM659.453 12.7109C659.453 11.7214 659.29 10.8164 658.965 9.99609C658.652 9.17578 658.203 8.47917 657.617 7.90625C657.031 7.32031 656.328 6.87109 655.508 6.55859C654.701 6.23307 653.802 6.07031 652.812 6.07031H641.621V23.9219H652.812C653.802 23.9219 654.701 23.7656 655.508 23.4531C656.328 23.1276 657.031 22.6784 657.617 22.1055C658.203 21.5195 658.652 20.8229 658.965 20.0156C659.29 19.1953 659.453 18.2839 659.453 17.2812V12.7109Z" fill="white"/>
<path d="M692.539 17.5547H676.504V12.4375H692.539V17.5547ZM694.824 29H676.504C675.801 29 675.033 28.8763 674.199 28.6289C673.366 28.3815 672.591 27.9779 671.875 27.418C671.172 26.8451 670.579 26.1094 670.098 25.2109C669.629 24.2995 669.395 23.1862 669.395 21.8711V3.55078C669.395 3.19922 669.46 2.86719 669.59 2.55469C669.72 2.24219 669.896 1.96875 670.117 1.73438C670.352 1.5 670.625 1.31771 670.938 1.1875C671.25 1.05729 671.589 0.992188 671.953 0.992188H694.824V6.07031H674.473V21.8711C674.473 22.5352 674.648 23.043 675 23.3945C675.352 23.7461 675.866 23.9219 676.543 23.9219H694.824V29Z" fill="white"/>
<path d="M727.734 10.4062C727.734 11.5651 727.591 12.6003 727.305 13.5117C727.018 14.4232 726.628 15.2305 726.133 15.9336C725.651 16.6237 725.091 17.2161 724.453 17.7109C723.815 18.2057 723.145 18.6159 722.441 18.9414C721.751 19.2539 721.048 19.4818 720.332 19.625C719.629 19.7682 718.965 19.8398 718.34 19.8398L728.945 29H721.094L710.508 19.8398H706.855V14.7617H718.34C718.978 14.7096 719.557 14.5794 720.078 14.3711C720.612 14.1497 721.068 13.8568 721.445 13.4922C721.836 13.1276 722.135 12.6914 722.344 12.1836C722.552 11.6628 722.656 11.0703 722.656 10.4062V7.20312C722.656 6.91667 722.617 6.70182 722.539 6.55859C722.474 6.40234 722.383 6.29167 722.266 6.22656C722.161 6.14844 722.044 6.10286 721.914 6.08984C721.797 6.07682 721.686 6.07031 721.582 6.07031H704.824V29H699.746V3.55078C699.746 3.19922 699.811 2.86719 699.941 2.55469C700.072 2.24219 700.247 1.96875 700.469 1.73438C700.703 1.5 700.977 1.31771 701.289 1.1875C701.602 1.05729 701.94 0.992188 702.305 0.992188H721.582C722.715 0.992188 723.672 1.20052 724.453 1.61719C725.234 2.02083 725.866 2.53516 726.348 3.16016C726.842 3.77214 727.194 4.4362 727.402 5.15234C727.624 5.86849 727.734 6.53906 727.734 7.16406V10.4062Z" fill="white"/>
<path d="M840.672 119H817.508C817.143 119 816.805 118.935 816.492 118.805C816.18 118.675 815.906 118.499 815.672 118.277C815.451 118.043 815.275 117.77 815.145 117.457C815.014 117.145 814.949 116.806 814.949 116.441V90.9922H820.027V113.922H840.672V119Z" fill="white"/>
<path d="M873.367 107.672C873.367 109.378 873.074 110.947 872.488 112.379C871.902 113.811 871.089 115.048 870.047 116.09C869.005 117.132 867.768 117.945 866.336 118.531C864.917 119.104 863.367 119.391 861.688 119.391H854.813C853.133 119.391 851.577 119.104 850.145 118.531C848.712 117.945 847.475 117.132 846.434 116.09C845.392 115.048 844.572 113.811 843.973 112.379C843.387 110.947 843.094 109.378 843.094 107.672V102.32C843.094 100.628 843.387 99.0651 843.973 97.6328C844.572 96.1875 845.392 94.9505 846.434 93.9219C847.475 92.8802 848.712 92.0664 850.145 91.4805C851.577 90.8945 853.133 90.6016 854.813 90.6016H861.688C863.367 90.6016 864.917 90.8945 866.336 91.4805C867.768 92.0664 869.005 92.8802 870.047 93.9219C871.089 94.9505 871.902 96.1875 872.488 97.6328C873.074 99.0651 873.367 100.628 873.367 102.32V107.672ZM868.289 102.32C868.289 101.318 868.126 100.413 867.801 99.6055C867.488 98.7852 867.039 98.0885 866.453 97.5156C865.88 96.9297 865.184 96.4805 864.363 96.168C863.556 95.8425 862.664 95.6797 861.688 95.6797H854.813C853.823 95.6797 852.918 95.8425 852.098 96.168C851.29 96.4805 850.594 96.9297 850.008 97.5156C849.422 98.0885 848.966 98.7852 848.641 99.6055C848.328 100.413 848.172 101.318 848.172 102.32V107.672C848.172 108.674 848.328 109.586 848.641 110.406C848.966 111.214 849.422 111.91 850.008 112.496C850.594 113.069 851.29 113.518 852.098 113.844C852.918 114.156 853.823 114.312 854.813 114.312H861.648C862.638 114.312 863.537 114.156 864.344 113.844C865.164 113.518 865.867 113.069 866.453 112.496C867.039 111.91 867.488 111.214 867.801 110.406C868.126 109.586 868.289 108.674 868.289 107.672V102.32Z" fill="white"/>
<path d="M906.023 116.441C906.023 116.806 905.958 117.145 905.828 117.457C905.698 117.77 905.516 118.043 905.281 118.277C905.06 118.499 904.793 118.675 904.481 118.805C904.168 118.935 903.829 119 903.465 119H885.145C884.676 119 884.168 118.948 883.621 118.844C883.087 118.727 882.553 118.551 882.02 118.316C881.499 118.082 880.997 117.783 880.516 117.418C880.034 117.04 879.604 116.591 879.227 116.07C878.862 115.536 878.569 114.924 878.348 114.234C878.126 113.531 878.016 112.743 878.016 111.871V98.1211C878.016 97.6523 878.068 97.151 878.172 96.6172C878.289 96.0703 878.465 95.5365 878.699 95.0156C878.934 94.4818 879.24 93.974 879.617 93.4922C879.995 93.0104 880.444 92.5872 880.965 92.2227C881.499 91.845 882.111 91.5456 882.801 91.3242C883.491 91.1029 884.272 90.9922 885.145 90.9922H905.789V96.0703H885.145C884.481 96.0703 883.973 96.2461 883.621 96.5977C883.27 96.9492 883.094 97.47 883.094 98.1602V111.871C883.094 112.522 883.27 113.03 883.621 113.395C883.986 113.746 884.494 113.922 885.145 113.922H900.945V107.555H887.43V102.438H903.465C903.829 102.438 904.168 102.509 904.481 102.652C904.793 102.783 905.06 102.965 905.281 103.199C905.516 103.434 905.698 103.707 905.828 104.019C905.958 104.319 906.023 104.644 906.023 104.996V116.441Z" fill="white"/>
<path d="M940.711 107.672C940.711 109.378 940.418 110.947 939.832 112.379C939.246 113.811 938.432 115.048 937.391 116.09C936.349 117.132 935.112 117.945 933.68 118.531C932.26 119.104 930.711 119.391 929.031 119.391H922.156C920.477 119.391 918.921 119.104 917.488 118.531C916.056 117.945 914.819 117.132 913.777 116.09C912.736 115.048 911.915 113.811 911.316 112.379C910.73 110.947 910.438 109.378 910.438 107.672V102.32C910.438 100.628 910.73 99.0651 911.316 97.6328C911.915 96.1875 912.736 94.9505 913.777 93.9219C914.819 92.8802 916.056 92.0664 917.488 91.4805C918.921 90.8945 920.477 90.6016 922.156 90.6016H929.031C930.711 90.6016 932.26 90.8945 933.68 91.4805C935.112 92.0664 936.349 92.8802 937.391 93.9219C938.432 94.9505 939.246 96.1875 939.832 97.6328C940.418 99.0651 940.711 100.628 940.711 102.32V107.672ZM935.633 102.32C935.633 101.318 935.47 100.413 935.145 99.6055C934.832 98.7852 934.383 98.0885 933.797 97.5156C933.224 96.9297 932.527 96.4805 931.707 96.168C930.9 95.8425 930.008 95.6797 929.031 95.6797H922.156C921.167 95.6797 920.262 95.8425 919.441 96.168C918.634 96.4805 917.938 96.9297 917.352 97.5156C916.766 98.0885 916.31 98.7852 915.984 99.6055C915.672 100.413 915.516 101.318 915.516 102.32V107.672C915.516 108.674 915.672 109.586 915.984 110.406C916.31 111.214 916.766 111.91 917.352 112.496C917.938 113.069 918.634 113.518 919.441 113.844C920.262 114.156 921.167 114.312 922.156 114.312H928.992C929.982 114.312 930.88 114.156 931.688 113.844C932.508 113.518 933.211 113.069 933.797 112.496C934.383 111.91 934.832 111.214 935.145 110.406C935.47 109.586 935.633 108.674 935.633 107.672V102.32Z" fill="white"/>
<path d="M950.848 102.438H968.68V90.9922H973.758V119H968.68V107.555H950.848V119H945.77V90.9922H950.848V102.438Z" fill="white"/>
<path d="M1009.11 107.672C1009.11 109.378 1008.82 110.947 1008.23 112.379C1007.64 113.811 1006.83 115.048 1005.79 116.09C1004.75 117.132 1003.51 117.945 1002.08 118.531C1000.66 119.104 999.109 119.391 997.43 119.391H990.555C988.875 119.391 987.319 119.104 985.887 118.531C984.454 117.945 983.217 117.132 982.176 116.09C981.134 115.048 980.314 113.811 979.715 112.379C979.129 110.947 978.836 109.378 978.836 107.672V102.32C978.836 100.628 979.129 99.0651 979.715 97.6328C980.314 96.1875 981.134 94.9505 982.176 93.9219C983.217 92.8802 984.454 92.0664 985.887 91.4805C987.319 90.8945 988.875 90.6016 990.555 90.6016H997.43C999.109 90.6016 1000.66 90.8945 1002.08 91.4805C1003.51 92.0664 1004.75 92.8802 1005.79 93.9219C1006.83 94.9505 1007.64 96.1875 1008.23 97.6328C1008.82 99.0651 1009.11 100.628 1009.11 102.32V107.672ZM1004.03 102.32C1004.03 101.318 1003.87 100.413 1003.54 99.6055C1003.23 98.7852 1002.78 98.0885 1002.19 97.5156C1001.62 96.9297 1000.93 96.4805 1000.1 96.168C999.298 95.8425 998.406 95.6797 997.43 95.6797H990.555C989.565 95.6797 988.66 95.8425 987.84 96.168C987.033 96.4805 986.336 96.9297 985.75 97.5156C985.164 98.0885 984.708 98.7852 984.383 99.6055C984.07 100.413 983.914 101.318 983.914 102.32V107.672C983.914 108.674 984.07 109.586 984.383 110.406C984.708 111.214 985.164 111.91 985.75 112.496C986.336 113.069 987.033 113.518 987.84 113.844C988.66 114.156 989.565 114.312 990.555 114.312H997.391C998.38 114.312 999.279 114.156 1000.09 113.844C1000.91 113.518 1001.61 113.069 1002.19 112.496C1002.78 111.91 1003.23 111.214 1003.54 110.406C1003.87 109.586 1004.03 108.674 1004.03 107.672V102.32Z" fill="white"/>
<path d="M1039.85 119H1016.69C1016.32 119 1015.98 118.935 1015.67 118.805C1015.36 118.675 1015.09 118.499 1014.85 118.277C1014.63 118.043 1014.45 117.77 1014.32 117.457C1014.19 117.145 1014.13 116.806 1014.13 116.441V90.9922H1019.21V113.922H1039.85V119Z" fill="white"/>
<path d="M1071.53 107.281C1071.53 108.987 1071.23 110.556 1070.63 111.988C1070.05 113.421 1069.23 114.658 1068.19 115.699C1067.15 116.728 1065.91 117.535 1064.48 118.121C1063.05 118.707 1061.49 119 1059.81 119H1046.1C1045.74 119 1045.4 118.935 1045.09 118.805C1044.77 118.675 1044.5 118.499 1044.27 118.277C1044.04 118.043 1043.87 117.77 1043.74 117.457C1043.61 117.145 1043.54 116.806 1043.54 116.441V93.5508C1043.54 93.1992 1043.61 92.8672 1043.74 92.5547C1043.87 92.2422 1044.04 91.9687 1044.27 91.7344C1044.5 91.5 1044.77 91.3177 1045.09 91.1875C1045.4 91.0573 1045.74 90.9922 1046.1 90.9922H1059.81C1061.49 90.9922 1063.05 91.2852 1064.48 91.8711C1065.91 92.457 1067.15 93.2708 1068.19 94.3125C1069.23 95.3411 1070.05 96.5781 1070.63 98.0234C1071.23 99.4557 1071.53 101.018 1071.53 102.711V107.281ZM1066.45 102.711C1066.45 101.721 1066.29 100.816 1065.96 99.9961C1065.65 99.1758 1065.2 98.4792 1064.62 97.9062C1064.03 97.3203 1063.33 96.8711 1062.51 96.5586C1061.7 96.2331 1060.8 96.0703 1059.81 96.0703H1048.62V113.922H1059.81C1060.8 113.922 1061.7 113.766 1062.51 113.453C1063.33 113.128 1064.03 112.678 1064.62 112.105C1065.2 111.519 1065.65 110.823 1065.96 110.016C1066.29 109.195 1066.45 108.284 1066.45 107.281V102.711Z" fill="white"/>
<path d="M1099.54 107.555H1083.5V102.438H1099.54V107.555ZM1101.82 119H1083.5C1082.8 119 1082.03 118.876 1081.2 118.629C1080.37 118.382 1079.59 117.978 1078.88 117.418C1078.17 116.845 1077.58 116.109 1077.1 115.211C1076.63 114.299 1076.4 113.186 1076.4 111.871V93.5508C1076.4 93.1992 1076.46 92.8672 1076.59 92.5547C1076.72 92.2422 1076.9 91.9687 1077.12 91.7344C1077.35 91.5 1077.63 91.3177 1077.94 91.1875C1078.25 91.0573 1078.59 90.9922 1078.95 90.9922H1101.82V96.0703H1081.47V111.871C1081.47 112.535 1081.65 113.043 1082 113.395C1082.35 113.746 1082.87 113.922 1083.54 113.922H1101.82V119Z" fill="white"/>
<path d="M1134.73 100.406C1134.73 101.565 1134.59 102.6 1134.3 103.512C1134.02 104.423 1133.63 105.23 1133.13 105.934C1132.65 106.624 1132.09 107.216 1131.45 107.711C1130.81 108.206 1130.14 108.616 1129.44 108.941C1128.75 109.254 1128.05 109.482 1127.33 109.625C1126.63 109.768 1125.96 109.84 1125.34 109.84L1135.94 119H1128.09L1117.51 109.84H1113.85V104.762H1125.34C1125.98 104.71 1126.56 104.579 1127.08 104.371C1127.61 104.15 1128.07 103.857 1128.44 103.492C1128.84 103.128 1129.13 102.691 1129.34 102.184C1129.55 101.663 1129.66 101.07 1129.66 100.406V97.2031C1129.66 96.9167 1129.62 96.7018 1129.54 96.5586C1129.47 96.4023 1129.38 96.2917 1129.27 96.2266C1129.16 96.1484 1129.04 96.1029 1128.91 96.0898C1128.8 96.0768 1128.69 96.0703 1128.58 96.0703H1111.82V119H1106.75V93.5508C1106.75 93.1992 1106.81 92.8672 1106.94 92.5547C1107.07 92.2422 1107.25 91.9687 1107.47 91.7344C1107.7 91.5 1107.98 91.3177 1108.29 91.1875C1108.6 91.0573 1108.94 90.9922 1109.3 90.9922H1128.58C1129.71 90.9922 1130.67 91.2005 1131.45 91.6172C1132.23 92.0208 1132.87 92.5352 1133.35 93.1602C1133.84 93.7721 1134.19 94.4362 1134.4 95.1523C1134.62 95.8685 1134.73 96.5391 1134.73 97.1641V100.406Z" fill="white"/>
<path d="M26.6719 119H3.50781C3.14323 119 2.80469 118.935 2.49219 118.805C2.17969 118.675 1.90625 118.499 1.67188 118.277C1.45052 118.043 1.27474 117.77 1.14453 117.457C1.01432 117.145 0.949219 116.806 0.949219 116.441V90.9922H6.02734V113.922H26.6719V119Z" fill="white"/>
<path d="M59.3672 107.672C59.3672 109.378 59.0742 110.947 58.4883 112.379C57.9023 113.811 57.0885 115.048 56.0469 116.09C55.0052 117.132 53.7682 117.945 52.3359 118.531C50.9167 119.104 49.3672 119.391 47.6875 119.391H40.8125C39.1328 119.391 37.5768 119.104 36.1445 118.531C34.7122 117.945 33.4753 117.132 32.4336 116.09C31.3919 115.048 30.5716 113.811 29.9727 112.379C29.3867 110.947 29.0938 109.378 29.0938 107.672V102.32C29.0938 100.628 29.3867 99.0651 29.9727 97.6328C30.5716 96.1875 31.3919 94.9505 32.4336 93.9219C33.4753 92.8802 34.7122 92.0664 36.1445 91.4805C37.5768 90.8945 39.1328 90.6016 40.8125 90.6016H47.6875C49.3672 90.6016 50.9167 90.8945 52.3359 91.4805C53.7682 92.0664 55.0052 92.8802 56.0469 93.9219C57.0885 94.9505 57.9023 96.1875 58.4883 97.6328C59.0742 99.0651 59.3672 100.628 59.3672 102.32V107.672ZM54.2891 102.32C54.2891 101.318 54.1263 100.413 53.8008 99.6055C53.4883 98.7852 53.0391 98.0885 52.4531 97.5156C51.8802 96.9297 51.1836 96.4805 50.3633 96.168C49.556 95.8425 48.6641 95.6797 47.6875 95.6797H40.8125C39.8229 95.6797 38.918 95.8425 38.0977 96.168C37.2904 96.4805 36.5938 96.9297 36.0078 97.5156C35.4219 98.0885 34.9661 98.7852 34.6406 99.6055C34.3281 100.413 34.1719 101.318 34.1719 102.32V107.672C34.1719 108.674 34.3281 109.586 34.6406 110.406C34.9661 111.214 35.4219 111.91 36.0078 112.496C36.5938 113.069 37.2904 113.518 38.0977 113.844C38.918 114.156 39.8229 114.312 40.8125 114.312H47.6484C48.638 114.312 49.5365 114.156 50.3438 113.844C51.1641 113.518 51.8672 113.069 52.4531 112.496C53.0391 111.91 53.4883 111.214 53.8008 110.406C54.1263 109.586 54.2891 108.674 54.2891 107.672V102.32Z" fill="white"/>
<path d="M92.0234 116.441C92.0234 116.806 91.9583 117.145 91.8281 117.457C91.6979 117.77 91.5156 118.043 91.2812 118.277C91.0599 118.499 90.793 118.675 90.4805 118.805C90.168 118.935 89.8294 119 89.4648 119H71.1445C70.6758 119 70.168 118.948 69.6211 118.844C69.0872 118.727 68.5534 118.551 68.0195 118.316C67.4987 118.082 66.9974 117.783 66.5156 117.418C66.0339 117.04 65.6042 116.591 65.2266 116.07C64.862 115.536 64.569 114.924 64.3477 114.234C64.1263 113.531 64.0156 112.743 64.0156 111.871V98.1211C64.0156 97.6523 64.0677 97.151 64.1719 96.6172C64.2891 96.0703 64.4648 95.5365 64.6992 95.0156C64.9336 94.4818 65.2396 93.974 65.6172 93.4922C65.9948 93.0104 66.444 92.5872 66.9648 92.2227C67.4987 91.845 68.1107 91.5456 68.8008 91.3242C69.4909 91.1029 70.2721 90.9922 71.1445 90.9922H91.7891V96.0703H71.1445C70.4805 96.0703 69.9727 96.2461 69.6211 96.5977C69.2695 96.9492 69.0938 97.47 69.0938 98.1602V111.871C69.0938 112.522 69.2695 113.03 69.6211 113.395C69.9857 113.746 70.4935 113.922 71.1445 113.922H86.9453V107.555H73.4297V102.438H89.4648C89.8294 102.438 90.168 102.509 90.4805 102.652C90.793 102.783 91.0599 102.965 91.2812 103.199C91.5156 103.434 91.6979 103.707 91.8281 104.019C91.9583 104.319 92.0234 104.644 92.0234 104.996V116.441Z" fill="white"/>
<path d="M126.711 107.672C126.711 109.378 126.418 110.947 125.832 112.379C125.246 113.811 124.432 115.048 123.391 116.09C122.349 117.132 121.112 117.945 119.68 118.531C118.26 119.104 116.711 119.391 115.031 119.391H108.156C106.477 119.391 104.921 119.104 103.488 118.531C102.056 117.945 100.819 117.132 99.7773 116.09C98.7357 115.048 97.9154 113.811 97.3164 112.379C96.7305 110.947 96.4375 109.378 96.4375 107.672V102.32C96.4375 100.628 96.7305 99.0651 97.3164 97.6328C97.9154 96.1875 98.7357 94.9505 99.7773 93.9219C100.819 92.8802 102.056 92.0664 103.488 91.4805C104.921 90.8945 106.477 90.6016 108.156 90.6016H115.031C116.711 90.6016 118.26 90.8945 119.68 91.4805C121.112 92.0664 122.349 92.8802 123.391 93.9219C124.432 94.9505 125.246 96.1875 125.832 97.6328C126.418 99.0651 126.711 100.628 126.711 102.32V107.672ZM121.633 102.32C121.633 101.318 121.47 100.413 121.145 99.6055C120.832 98.7852 120.383 98.0885 119.797 97.5156C119.224 96.9297 118.527 96.4805 117.707 96.168C116.9 95.8425 116.008 95.6797 115.031 95.6797H108.156C107.167 95.6797 106.262 95.8425 105.441 96.168C104.634 96.4805 103.938 96.9297 103.352 97.5156C102.766 98.0885 102.31 98.7852 101.984 99.6055C101.672 100.413 101.516 101.318 101.516 102.32V107.672C101.516 108.674 101.672 109.586 101.984 110.406C102.31 111.214 102.766 111.91 103.352 112.496C103.938 113.069 104.634 113.518 105.441 113.844C106.262 114.156 107.167 114.312 108.156 114.312H114.992C115.982 114.312 116.88 114.156 117.688 113.844C118.508 113.518 119.211 113.069 119.797 112.496C120.383 111.91 120.832 111.214 121.145 110.406C121.47 109.586 121.633 108.674 121.633 107.672V102.32Z" fill="white"/>
<path d="M136.848 102.438H154.68V90.9922H159.758V119H154.68V107.555H136.848V119H131.77V90.9922H136.848V102.438Z" fill="white"/>
<path d="M195.109 107.672C195.109 109.378 194.816 110.947 194.23 112.379C193.645 113.811 192.831 115.048 191.789 116.09C190.747 117.132 189.51 117.945 188.078 118.531C186.659 119.104 185.109 119.391 183.43 119.391H176.555C174.875 119.391 173.319 119.104 171.887 118.531C170.454 117.945 169.217 117.132 168.176 116.09C167.134 115.048 166.314 113.811 165.715 112.379C165.129 110.947 164.836 109.378 164.836 107.672V102.32C164.836 100.628 165.129 99.0651 165.715 97.6328C166.314 96.1875 167.134 94.9505 168.176 93.9219C169.217 92.8802 170.454 92.0664 171.887 91.4805C173.319 90.8945 174.875 90.6016 176.555 90.6016H183.43C185.109 90.6016 186.659 90.8945 188.078 91.4805C189.51 92.0664 190.747 92.8802 191.789 93.9219C192.831 94.9505 193.645 96.1875 194.23 97.6328C194.816 99.0651 195.109 100.628 195.109 102.32V107.672ZM190.031 102.32C190.031 101.318 189.868 100.413 189.543 99.6055C189.23 98.7852 188.781 98.0885 188.195 97.5156C187.622 96.9297 186.926 96.4805 186.105 96.168C185.298 95.8425 184.406 95.6797 183.43 95.6797H176.555C175.565 95.6797 174.66 95.8425 173.84 96.168C173.033 96.4805 172.336 96.9297 171.75 97.5156C171.164 98.0885 170.708 98.7852 170.383 99.6055C170.07 100.413 169.914 101.318 169.914 102.32V107.672C169.914 108.674 170.07 109.586 170.383 110.406C170.708 111.214 171.164 111.91 171.75 112.496C172.336 113.069 173.033 113.518 173.84 113.844C174.66 114.156 175.565 114.312 176.555 114.312H183.391C184.38 114.312 185.279 114.156 186.086 113.844C186.906 113.518 187.609 113.069 188.195 112.496C188.781 111.91 189.23 111.214 189.543 110.406C189.868 109.586 190.031 108.674 190.031 107.672V102.32Z" fill="white"/>
<path d="M225.852 119H202.688C202.323 119 201.984 118.935 201.672 118.805C201.359 118.675 201.086 118.499 200.852 118.277C200.63 118.043 200.454 117.77 200.324 117.457C200.194 117.145 200.129 116.806 200.129 116.441V90.9922H205.207V113.922H225.852V119Z" fill="white"/>
<path d="M257.531 107.281C257.531 108.987 257.232 110.556 256.633 111.988C256.047 113.421 255.233 114.658 254.191 115.699C253.15 116.728 251.913 117.535 250.48 118.121C249.048 118.707 247.492 119 245.812 119H232.102C231.737 119 231.398 118.935 231.086 118.805C230.773 118.675 230.5 118.499 230.266 118.277C230.044 118.043 229.868 117.77 229.738 117.457C229.608 117.145 229.543 116.806 229.543 116.441V93.5508C229.543 93.1992 229.608 92.8672 229.738 92.5547C229.868 92.2422 230.044 91.9687 230.266 91.7344C230.5 91.5 230.773 91.3177 231.086 91.1875C231.398 91.0573 231.737 90.9922 232.102 90.9922H245.812C247.492 90.9922 249.048 91.2852 250.48 91.8711C251.913 92.457 253.15 93.2708 254.191 94.3125C255.233 95.3411 256.047 96.5781 256.633 98.0234C257.232 99.4557 257.531 101.018 257.531 102.711V107.281ZM252.453 102.711C252.453 101.721 252.29 100.816 251.965 99.9961C251.652 99.1758 251.203 98.4792 250.617 97.9062C250.031 97.3203 249.328 96.8711 248.508 96.5586C247.701 96.2331 246.802 96.0703 245.812 96.0703H234.621V113.922H245.812C246.802 113.922 247.701 113.766 248.508 113.453C249.328 113.128 250.031 112.678 250.617 112.105C251.203 111.519 251.652 110.823 251.965 110.016C252.29 109.195 252.453 108.284 252.453 107.281V102.711Z" fill="white"/>
<path d="M285.539 107.555H269.504V102.438H285.539V107.555ZM287.824 119H269.504C268.801 119 268.033 118.876 267.199 118.629C266.366 118.382 265.591 117.978 264.875 117.418C264.172 116.845 263.579 116.109 263.098 115.211C262.629 114.299 262.395 113.186 262.395 111.871V93.5508C262.395 93.1992 262.46 92.8672 262.59 92.5547C262.72 92.2422 262.896 91.9687 263.117 91.7344C263.352 91.5 263.625 91.3177 263.938 91.1875C264.25 91.0573 264.589 90.9922 264.953 90.9922H287.824V96.0703H267.473V111.871C267.473 112.535 267.648 113.043 268 113.395C268.352 113.746 268.866 113.922 269.543 113.922H287.824V119Z" fill="white"/>
<path d="M320.734 100.406C320.734 101.565 320.591 102.6 320.305 103.512C320.018 104.423 319.628 105.23 319.133 105.934C318.651 106.624 318.091 107.216 317.453 107.711C316.815 108.206 316.145 108.616 315.441 108.941C314.751 109.254 314.048 109.482 313.332 109.625C312.629 109.768 311.965 109.84 311.34 109.84L321.945 119H314.094L303.508 109.84H299.855V104.762H311.34C311.978 104.71 312.557 104.579 313.078 104.371C313.612 104.15 314.068 103.857 314.445 103.492C314.836 103.128 315.135 102.691 315.344 102.184C315.552 101.663 315.656 101.07 315.656 100.406V97.2031C315.656 96.9167 315.617 96.7018 315.539 96.5586C315.474 96.4023 315.383 96.2917 315.266 96.2266C315.161 96.1484 315.044 96.1029 314.914 96.0898C314.797 96.0768 314.686 96.0703 314.582 96.0703H297.824V119H292.746V93.5508C292.746 93.1992 292.811 92.8672 292.941 92.5547C293.072 92.2422 293.247 91.9687 293.469 91.7344C293.703 91.5 293.977 91.3177 294.289 91.1875C294.602 91.0573 294.94 90.9922 295.305 90.9922H314.582C315.715 90.9922 316.672 91.2005 317.453 91.6172C318.234 92.0208 318.866 92.5352 319.348 93.1602C319.842 93.7721 320.194 94.4362 320.402 95.1523C320.624 95.8685 320.734 96.5391 320.734 97.1641V100.406Z" fill="white"/>
</svg>
